<svg xmlns="http://www.w3.org/2000/svg" width="215" height="18" viewBox="0 0 215 18"><g fill="#0b0a0f" fill-rule="evenodd"><path d="M27.588 9.31c0-1.254.228-2.391.68-3.411a7.85 7.85 0 0 1 1.865-2.613 8.288 8.288 0 0 1 2.784-1.67 9.877 9.877 0 0 1 3.421-.588c1.241 0 2.416.197 3.522.588 1.106.391 2.03.919 2.772 1.582l-3.318 3.897a2.897 2.897 0 0 0-1.135-.874 3.74 3.74 0 0 0-1.523-.299 3.44 3.44 0 0 0-1.272.233c-.396.155-.74.38-1.036.675a3.137 3.137 0 0 0-.692 1.074c-.168.42-.25.889-.25 1.406 0 .517.087.978.262 1.384.173.405.408.756.704 1.05.296.296.64.52 1.034.676.394.155.81.232 1.25.232.622 0 1.155-.124 1.602-.376.448-.25.799-.547 1.056-.885l3.318 3.874c-.727.708-1.62 1.274-2.681 1.693-1.06.422-2.265.633-3.613.633-1.213 0-2.352-.2-3.422-.598a8.348 8.348 0 0 1-2.783-1.694 8.004 8.004 0 0 1-1.864-2.613c-.453-1.01-.68-2.137-.68-3.376M52.905 9.221c0-1.256.227-2.387.68-3.4a7.557 7.557 0 0 1 1.876-2.578c.795-.708 1.738-1.254 2.83-1.638 1.09-.384 2.273-.576 3.545-.576 1.273 0 2.454.192 3.546.576 1.09.384 2.038.93 2.84 1.638A7.492 7.492 0 0 1 70.11 5.82c.455 1.013.68 2.144.68 3.4 0 1.254-.225 2.398-.68 3.431a7.76 7.76 0 0 1-1.887 2.647 8.517 8.517 0 0 1-2.84 1.694c-1.092.398-2.273.598-3.546.598-1.272 0-2.454-.2-3.546-.598a8.388 8.388 0 0 1-2.83-1.694 7.829 7.829 0 0 1-1.875-2.647c-.453-1.033-.68-2.177-.68-3.43m5.75 0c0 .515.08.989.238 1.416.16.428.378.796.659 1.106.28.312.618.551 1.012.72.393.17.817.255 1.272.255.455 0 .875-.085 1.261-.254.387-.17.723-.41 1.012-.721.287-.31.51-.678.67-1.106.159-.427.238-.901.238-1.417 0-.502-.08-.963-.238-1.384a2.969 2.969 0 0 0-.67-1.062 3.12 3.12 0 0 0-1.012-.676 3.227 3.227 0 0 0-1.261-.244 3.31 3.31 0 0 0-1.272.244 2.97 2.97 0 0 0-1.012.676c-.281.288-.5.641-.659 1.062-.159.42-.238.882-.238 1.384M82.832 17.148V1.472h6c1.272 0 2.49.12 3.647.365 1.16.244 2.183.664 3.069 1.262a6.564 6.564 0 0 1 2.125 2.38c.53.99.795 2.236.795 3.743 0 1.372-.253 2.56-.76 3.564-.509 1.003-1.187 1.827-2.035 2.468a8.722 8.722 0 0 1-2.931 1.429c-1.108.31-2.259.465-3.455.465h-6.455zm5.204-11.204v6.665h1.001c1.272 0 2.25-.269 2.932-.806.68-.536 1.023-1.416 1.023-2.638 0-1.014-.343-1.805-1.023-2.37-.683-.568-1.591-.851-2.729-.851h-1.204zM110.512 17.148h5.454V1.472h-5.454zM128.009 9.31c0-1.254.227-2.391.68-3.411a7.85 7.85 0 0 1 1.865-2.613 8.288 8.288 0 0 1 2.783-1.67 9.877 9.877 0 0 1 3.422-.588c1.24 0 2.415.197 3.522.588 1.106.391 2.03.919 2.772 1.582l-3.318 3.897a2.897 2.897 0 0 0-1.136-.874 3.739 3.739 0 0 0-1.522-.299 3.44 3.44 0 0 0-1.272.233c-.396.155-.74.38-1.036.675a3.137 3.137 0 0 0-.692 1.074c-.168.42-.25.889-.25 1.406 0 .517.087.978.261 1.384.174.405.409.756.705 1.05.296.296.64.52 1.034.676.394.155.81.232 1.25.232.621 0 1.154-.124 1.602-.376.447-.25.799-.547 1.056-.885l3.318 3.874c-.727.708-1.62 1.274-2.682 1.693-1.06.422-2.264.633-3.612.633-1.214 0-2.353-.2-3.422-.598a8.348 8.348 0 0 1-2.783-1.694 8.004 8.004 0 0 1-1.865-2.613c-.453-1.01-.68-2.137-.68-3.376M158.53 1.472h5.75l6.272 15.676h-5.886l-.841-2.303h-5.114l-.795 2.303h-5.728l6.342-15.676zm2.794 5.468l-1.318 3.874h2.615l-1.297-3.874zM188.117 17.148h-5.41V5.922h-3.954v-4.45h13.318v4.45h-3.954zM203.5 1.472v15.675h11.453v-4.383h-6.362v-1.462h5.613V7.205h-5.613v-1.35h5.976V1.472zM7.48 17.206h9.762V.41H7.48z"/><path d="M0 17.206h17.242v-9.51H0z"/></g></svg>